<svg fill="none" height="26" viewBox="0 0 148 26" width="148" xmlns="http://www.w3.org/2000/svg"><g fill="#0c1d37"><path d="m48.6114 19.9999v-16.09996h2.944v6.69296h7.222v-6.69296h2.944v16.09996h-2.944v-7.015h-7.222v7.015z"/><path d="m66.2076 25.0599 2.645-5.819h-.69l-4.439-10.64896h3.197l3.197 8.02696 3.335-8.02696h3.128l-7.245 16.46796z"/><path d="m78.5052 25.0599v-16.46796h2.6221l.3219 1.63296c.368-.50596.8511-.95063 1.4491-1.33396.6133-.38333 1.4029-.575 2.369-.575 1.0733 0 2.0316.26067 2.875.782.8433.52133 1.5103 1.23436 2.0009 2.13896.4907.9047.736 1.932.736 3.082s-.2453 2.1774-.736 3.082c-.4906.8894-1.1576 1.5947-2.0009 2.116-.8434.506-1.8017.759-2.875.759-.8587 0-1.6101-.161-2.2541-.483s-1.1653-.7743-1.564-1.357v6.624zm6.1411-7.36c.9353 0 1.7096-.3143 2.3229-.943.6134-.6286.9201-1.4413.9201-2.438 0-.9966-.3067-1.817-.9201-2.461-.6133-.644-1.3876-.966-2.3229-.966-.9507 0-1.7327.322-2.346.966-.598.6287-.897 1.4414-.897 2.438 0 .9967.299 1.817.897 2.461.6133.6287 1.3953.943 2.346.943z"/><path d="m99.0522 20.2759c-1.15 0-2.1697-.2453-3.059-.736-.8894-.4906-1.587-1.1806-2.093-2.07-.506-.8893-.759-1.9166-.759-3.082 0-1.1806.2453-2.231.736-3.151.506-.92 1.196-1.63296 2.07-2.13896.8893-.52133 1.932-.782 3.128-.782 1.1188 0 2.1078.24534 2.9668.736.859.49067 1.526 1.16536 2.001 2.02396.491.8434.736 1.7864.736 2.829 0 .1687-.008.345-.023.529 0 .184-.008.3757-.023.575h-8.6708c.0613.8894.368 1.587.92 2.093.5673.506 1.2496.759 2.047.759.598 0 1.0958-.1303 1.4948-.391.414-.276.721-.6286.92-1.058h2.99c-.215.7207-.575 1.38-1.081 1.978-.491.5827-1.104 1.0427-1.84 1.38-.721.3374-1.5408.506-2.4608.506zm.023-9.568c-.7207 0-1.357.207-1.909.621-.552.3987-.9047 1.012-1.058 1.84h5.6808c-.046-.7513-.322-1.3493-.828-1.794-.506-.4446-1.1345-.667-1.8858-.667z"/><path d="m107.255 19.9999v-11.40796h2.622l.276 2.13896c.414-.73596.974-1.31863 1.679-1.74796.721-.44467 1.564-.667 2.53-.667v3.10496h-.828c-.644 0-1.219.0997-1.725.299-.506.1994-.904.5444-1.196 1.035-.276.4907-.414 1.173-.414 2.047v5.198z"/><path d="m117.961 6.82094c-.536 0-.981-.161-1.334-.483-.337-.322-.506-.72833-.506-1.219s.169-.88933.506-1.196c.353-.322.798-.483 1.334-.483.537 0 .974.161 1.311.483.353.30667.529.70533.529 1.196s-.176.897-.529 1.219c-.337.322-.774.483-1.311.483zm-1.472 13.17896v-11.40796h2.944v11.40796z"/><path d="m127.98 20.2759c-1.104 0-2.1-.253-2.99-.759-.874-.506-1.571-1.2036-2.093-2.093-.506-.9046-.759-1.9473-.759-3.128 0-1.1806.261-2.2156.782-3.105.522-.9046 1.219-1.60996 2.093-2.11596.89-.506 1.886-.759 2.99-.759 1.089 0 2.07.253 2.944.759.89.506 1.587 1.21136 2.093 2.11596.522.8894.782 1.9244.782 3.105 0 1.1807-.26 2.2234-.782 3.128-.506.8894-1.203 1.587-2.093 2.093-.889.506-1.878.759-2.967.759zm0-2.553c.767 0 1.434-.2836 2.001-.851.568-.5826.851-1.4413.851-2.576 0-1.1346-.283-1.9856-.851-2.553-.567-.5826-1.226-.874-1.978-.874-.782 0-1.456.2914-2.024.874-.552.5674-.828 1.4184-.828 2.553 0 1.1347.276 1.9934.828 2.576.568.5674 1.235.851 2.001.851z"/><path d="m136.454 19.9999v-11.40796h2.599l.23 1.93196c.353-.67463.859-1.21129 1.518-1.60996.675-.39867 1.465-.598 2.369-.598 1.411 0 2.507.44467 3.289 1.334.782.88936 1.173 2.19266 1.173 3.90996v6.44h-2.944v-6.164c0-.9813-.199-1.7326-.598-2.254-.398-.5213-1.019-.782-1.863-.782-.828 0-1.51.2914-2.047.874-.521.5827-.782 1.3954-.782 2.438v5.888z"/></g><path clip-rule="evenodd" d="m19.7246 24.1282c3.7618-2.278 6.2759-6.4095 6.2759-11.1282 0-4.71872-2.5141-8.85025-6.2759-11.12816 1.9619-1.188009 4.2632-1.87184 6.7241-1.87184 7.1797 0 13 5.8203 13 13s-5.8203 13-13 13c-2.4609 0-4.7622-.6838-6.7241-1.8718z" fill="#fcd7bd" fill-rule="evenodd"/><path clip-rule="evenodd" d="m19.7241 1.87184c-3.7617 2.27791-6.2758 6.40944-6.2758 11.12816 0 4.7187 2.5141 8.8502 6.2758 11.1282-1.9619 1.188-4.2631 1.8718-6.7241 1.8718-7.1797 0-13-5.8203-13-13s5.8203-13 13-13c2.461 0 4.7622.683831 6.7241 1.87184z" fill="#ff6501" fill-rule="evenodd"/><path clip-rule="evenodd" d="m19.7251 24.1284c3.7618-2.2779 6.2758-6.4094 6.2758-11.1282 0-4.71869-2.514-8.85022-6.2758-11.12813-3.7618 2.27791-6.2759 6.40944-6.2759 11.12813 0 4.7188 2.5141 8.8503 6.2759 11.1282z" fill="#fcb687" fill-rule="evenodd"/></svg>